<?xml version="1.0" encoding="UTF-8" standalone="no"?>
<svg id="Layer_1" data-name="Layer 1" xmlns="http://www.w3.org/2000/svg" viewBox="0 0 128 128">
  <defs>
    <style>.cls-1 {
      fill: #ffffff;
    }</style>
  </defs>
  <title>b</title>
  <path class="cls-1"
        d="M71.13587,32.74882l1.68278,8.67391a11.02353,11.02353,0,0,0,21.64143,0l1.68278-8.67391A11.61184,11.61184,0,0,0,84.6388,19.57222H82.63991A11.61184,11.61184,0,0,0,71.13587,32.74882Z"/>
  <path class="cls-1"
        d="M125.42227,96.5301a4.72534,4.72534,0,0,0-2.54659-3.42944c-4.428-2.20805-14.14488-5.46915-14.14488-5.46915V84.42322l.27049-.20415a9.28306,9.28306,0,0,0,3.52472-5.8995l.05445-.34194h.26367a3.58594,3.58594,0,0,0,3.3189-2.23188,3.9049,3.9049,0,0,0,.48823-1.89163,3.59286,3.59286,0,0,0-.25518-1.33028,1.85544,1.85544,0,0,0-.71956-1.15678l-.8965-.54435.22284-.973c1.61947-7.05969-3.84966-13.41852-11.19341-13.59373-.1786-.00341-.35554-.00508-.53075-.00169-.17522-.00339-.35213-.00172-.53075.00169-7.34375.17522-12.81285,6.534-11.19341,13.59373l.22287.973-.8965.54435a1.85558,1.85558,0,0,0-.71959,1.15678,3.59334,3.59334,0,0,0-.25516,1.33028,3.9049,3.9049,0,0,0,.48823,1.89163,3.58594,3.58594,0,0,0,3.31888,2.23188H93.977l.05445.34194a9.28306,9.28306,0,0,0,3.52472,5.8995l.27049.20415v3.20829s-9.71682,3.2611-14.14485,5.46915c-.0147.00733-.02779.0169-.0424.02438-.0146-.00748-.02769-.01705-.0424-.02438-4.428-2.20805-14.14488-5.46915-14.14488-5.46915V84.42322l.27049-.20415a9.28306,9.28306,0,0,0,3.52472-5.8995l.05445-.34194h.26367a3.586,3.586,0,0,0,3.3189-2.23188,3.9049,3.9049,0,0,0,.48823-1.89163,3.59286,3.59286,0,0,0-.25518-1.33028,1.85544,1.85544,0,0,0-.71956-1.15678l-.8965-.54435.22284-.973C77.34363,62.79,71.8745,56.43117,64.53075,56.256c-.1786-.00341-.35554-.00508-.53075-.00169-.17522-.00339-.35213-.00172-.53075.00169-7.34375.17522-12.81288,6.534-11.19341,13.59373l.22284.973-.89647.54435a1.85537,1.85537,0,0,0-.71959,1.15678,3.59284,3.59284,0,0,0-.25516,1.33028,3.90462,3.90462,0,0,0,.48823,1.89163,3.58594,3.58594,0,0,0,3.31888,2.23188h.26367l.05445.34194a9.28306,9.28306,0,0,0,3.52472,5.8995l.27049.20415v3.20829s-9.71682,3.2611-14.14485,5.46915c-.0147.00733-.02779.0169-.0424.02438-.0146-.00748-.02769-.01705-.0424-.02438-4.428-2.20805-14.14488-5.46915-14.14488-5.46915V84.42322l.27049-.20415a9.28306,9.28306,0,0,0,3.52472-5.8995l.05445-.34194h.26367a3.586,3.586,0,0,0,3.3189-2.23188,3.90516,3.90516,0,0,0,.48821-1.89163,3.59334,3.59334,0,0,0-.25516-1.33028,1.85547,1.85547,0,0,0-.71959-1.15678l-.8965-.54435.22284-.973C38.06492,62.79,32.59579,56.43117,25.252,56.256c-.17863-.00341-.35554-.00508-.53075-.00169-.17522-.00339-.35213-.00172-.53075.00169-7.34375.17522-12.81288,6.534-11.19341,13.59373l.22284.973-.89647.54435a1.85537,1.85537,0,0,0-.71959,1.15678,3.59283,3.59283,0,0,0-.25516,1.33028,3.90488,3.90488,0,0,0,.48821,1.89163,3.586,3.586,0,0,0,3.3189,2.23188h.26367l.05445.34194a9.28306,9.28306,0,0,0,3.52472,5.8995l.27049.20415v3.20829S9.55235,90.8926,5.12432,93.10066A4.72525,4.72525,0,0,0,2.57776,96.5301a102.88571,102.88571,0,0,0-.89311,11.89768H126.31535A102.8895,102.8895,0,0,0,125.42227,96.5301Z"/>
  <path class="cls-1"
        d="M33.53994,41.42272a11.02351,11.02351,0,0,0,21.64141,0l1.68281-8.67391a11.61184,11.61184,0,0,0-11.50407-13.1766H43.3612a11.61184,11.61184,0,0,0-11.504,13.1766Z"/>
</svg>
